<svg width="192" height="192" viewBox="0 0 192 192" fill="none" xmlns="http://www.w3.org/2000/svg">
  <defs>
    <linearGradient id="openhsk-192-bg" x1="14" y1="14" x2="178" y2="178" gradientUnits="userSpaceOnUse">
      <stop stop-color="#F97316" />
      <stop offset="1" stop-color="#C2410C" />
    </linearGradient>
  </defs>

  <rect x="12" y="12" width="168" height="168" rx="42" fill="url(#openhsk-192-bg)" />

  <path d="M61 51C76 51 87 55.5 96 62.5C105 55.5 116 51 131 51V124C116 124 105 129 96 136C87 129 76 124 61 124V51Z" fill="white" fill-opacity="0.96" />
  <path d="M96 62.5V136" stroke="#FED7AA" stroke-width="5" stroke-linecap="round" />
  <path d="M71 74H88" stroke="#FDBA74" stroke-width="4" stroke-linecap="round" />
  <path d="M104 74H121" stroke="#FDBA74" stroke-width="4" stroke-linecap="round" />
  <path d="M71 88H88" stroke="#FDBA74" stroke-width="4" stroke-linecap="round" />
  <path d="M104 88H121" stroke="#FDBA74" stroke-width="4" stroke-linecap="round" />
  <path d="M71 141C85 128 108 124 124 133" stroke="#FACC15" stroke-width="6" stroke-linecap="round" />
</svg>