<svg width="640" height="420" viewBox="0 0 640 420" fill="none" xmlns="http://www.w3.org/2000/svg">
  <rect width="640" height="420" rx="36" fill="#FFF7ED"/>
  <rect x="120" y="80" width="400" height="260" rx="24" fill="#FED7AA"/>
  <rect x="152" y="116" width="336" height="192" rx="16" fill="#FFF"/>
  <rect x="182" y="244" width="42" height="38" rx="8" fill="#FB923C"/>
  <rect x="238" y="212" width="42" height="70" rx="8" fill="#F97316"/>
  <rect x="294" y="180" width="42" height="102" rx="8" fill="#EA580C"/>
  <rect x="350" y="150" width="42" height="132" rx="8" fill="#C2410C"/>
  <rect x="406" y="126" width="42" height="156" rx="8" fill="#9A3412"/>
  <path d="M182 168C212 150 242 145 272 150C302 154 332 175 362 198C392 218 420 224 448 220" stroke="#FDBA74" stroke-width="8" stroke-linecap="round"/>
</svg>
